<svg width="700" height="230" viewBox="0 0 700 230" fill="none" xmlns="http://www.w3.org/2000/svg">
<g id="cat" clip-path="url(#clip0)">
<g id="leaf1">
<path id="Path 438" d="M90.7654 137.444C98.3004 140.063 106.39 140.719 114.256 139.349C122.122 137.979 129.499 134.629 135.675 129.621C151.405 116.565 156.337 95.0637 160.349 75.149L172.218 16.2429L147.369 33.1615C129.498 45.3284 111.226 57.8863 98.8538 75.5092C86.4814 93.1321 81.0836 117.191 91.0216 136.26" fill="url(#paint0_linear)"/>
<path id="Path 439" d="M94.6023 212.861C91.4747 190.33 88.2569 167.507 90.4559 144.734C92.4047 124.509 98.645 104.759 111.349 88.5577C118.093 79.9762 126.298 72.6235 135.597 66.8303C138.021 65.3176 140.252 69.116 137.839 70.6229C121.749 80.6772 109.304 95.5242 102.298 113.023C94.5608 132.483 93.3184 153.696 94.6512 174.368C95.4568 186.868 97.1687 199.287 98.8879 211.691C99.0236 212.252 98.9389 212.843 98.6508 213.345C98.3627 213.846 97.8927 214.221 97.336 214.393C96.768 214.544 96.1625 214.468 95.6511 214.181C95.1396 213.893 94.7633 213.418 94.6038 212.858L94.6023 212.861Z" fill="#3F3D56"/>
<path id="Path 442" d="M117.114 176.707C120.345 181.565 124.787 185.518 130.012 188.186C135.237 190.853 141.068 192.145 146.944 191.936C162.049 191.228 174.636 180.808 185.966 170.912L219.485 141.648L197.302 140.598C181.349 139.842 164.984 139.134 149.789 144.004C134.594 148.874 120.581 160.577 117.803 176.129" fill="url(#paint1_linear)"/>
<path id="Path 443" d="M85.7617 225.813C100.819 199.469 118.283 170.19 149.49 160.832C158.166 158.239 167.264 157.31 176.293 158.095C179.139 158.338 178.429 162.675 175.588 162.433C160.453 161.191 145.347 165.143 132.813 173.624C120.751 181.742 111.36 193.029 103.412 204.996C98.5428 212.328 94.1817 219.971 89.8206 227.602C88.4272 230.042 84.3519 228.28 85.7617 225.813Z" fill="#3F3D56"/>
</g>
<g id="leaf2">
<path id="Path 438_2" d="M233.997 189.354C237.249 190.485 240.741 190.768 244.136 190.177C247.531 189.585 250.714 188.139 253.38 185.978C260.169 180.343 262.298 171.063 264.029 162.468L269.152 137.044L258.428 144.346C250.714 149.597 242.828 155.017 237.488 162.623C232.148 170.229 229.819 180.613 234.108 188.844" fill="url(#paint2_linear)"/>
<path id="Path 439_2" d="M235.653 221.904C234.303 212.18 232.915 202.33 233.864 192.501C234.705 183.772 237.398 175.247 242.881 168.255C245.792 164.551 249.333 161.378 253.346 158.878C254.393 158.225 255.356 159.864 254.314 160.514C247.37 164.854 241.999 171.262 238.975 178.814C235.635 187.213 235.099 196.369 235.674 205.291C236.022 210.686 236.761 216.046 237.503 221.4C237.561 221.642 237.525 221.897 237.401 222.113C237.276 222.33 237.073 222.491 236.833 222.566C236.588 222.631 236.327 222.598 236.106 222.474C235.885 222.35 235.723 222.145 235.654 221.903L235.653 221.904Z" fill="#3F3D56"/>
<path id="Path 442_2" d="M245.369 206.301C246.764 208.397 248.681 210.103 250.936 211.255C253.191 212.406 255.708 212.963 258.244 212.873C264.763 212.567 270.196 208.07 275.086 203.799L289.553 191.169L279.978 190.716C273.093 190.389 266.03 190.084 259.472 192.186C252.914 194.288 246.866 199.339 245.667 206.051" fill="url(#paint3_linear)"/>
<path id="Path 443_2" d="M231.838 227.495C238.336 216.124 245.874 203.487 259.343 199.448C263.087 198.329 267.014 197.928 270.911 198.267C272.139 198.372 271.833 200.244 270.607 200.14C264.074 199.604 257.554 201.309 252.145 204.97C246.939 208.473 242.886 213.345 239.455 218.51C237.354 221.674 235.472 224.973 233.589 228.267C232.988 229.32 231.229 228.559 231.838 227.495Z" fill="#3F3D56"/>
</g>
<g id="leaf4">
<path id="Path 438_3" d="M625.621 196.408C595.598 204.931 595.243 162.977 590.466 144.098C607.435 155.524 636.047 171.813 625.51 195.898" fill="url(#paint4_linear)"/>
<path id="Path 439_3" d="M623.965 228.959C627.908 206.903 628.157 178.968 606.271 165.932C605.225 165.279 604.262 166.918 605.304 167.568C626.434 180.206 625.807 207.194 622.114 228.454C622.057 228.693 622.095 228.945 622.222 229.157C622.349 229.368 622.553 229.523 622.793 229.589C623.033 229.654 623.289 229.624 623.507 229.507C623.726 229.389 623.89 229.192 623.964 228.957L623.965 228.959Z" fill="#3F3D56"/>
</g>
<g id="leaf3">
<path id="Path 442_3" d="M539.344 206.301C525.605 224.537 506.474 200.119 495.161 191.169C510.251 190.375 534.357 187.3 539.047 206.051" fill="url(#paint5_linear)"/>
<path id="Path 443_3" d="M552.876 227.495C545.11 212.794 532.708 196.168 513.802 198.268C512.574 198.372 512.881 200.244 514.107 200.14C532.065 198.302 543.749 214.273 551.123 228.267C551.725 229.32 553.484 228.559 552.876 227.495Z" fill="#3F3D56"/>
</g>
<g id="lines">
<path id="Vector" d="M699.108 230H0.89172C0.655221 230 0.428408 229.907 0.261178 229.742C0.0939481 229.576 0 229.352 0 229.118C0 228.884 0.0939481 228.66 0.261178 228.495C0.428408 228.329 0.655221 228.237 0.89172 228.237H699.108C699.345 228.237 699.572 228.329 699.739 228.495C699.906 228.66 700 228.884 700 229.118C700 229.352 699.906 229.576 699.739 229.742C699.572 229.907 699.345 230 699.108 230Z" fill="white"/>
<path id="Vector_2" d="M531.465 171.804H298.726C298.49 171.804 298.263 171.711 298.096 171.546C297.928 171.38 297.834 171.156 297.834 170.922C297.834 170.688 297.928 170.464 298.096 170.299C298.263 170.133 298.49 170.04 298.726 170.04H531.465C531.701 170.04 531.928 170.133 532.096 170.299C532.263 170.464 532.357 170.688 532.357 170.922C532.357 171.156 532.263 171.38 532.096 171.546C531.928 171.711 531.701 171.804 531.465 171.804Z" fill="#FFFEFE"/>
</g>
<g id="body">
<path id="Vector_3" d="M425.308 100.291C445.711 99.9702 471.38 170.772 423.028 171.139C398.01 171.329 353.718 176.154 353.718 176.154C353.718 176.154 319.288 125.058 334.644 93.2698L425.308 100.291Z" fill="#3F3D56"/>
<path id="Vector_4" d="M380.428 137.707V174.39H397.772L411.533 137.038" fill="#3F3D56"/>
<path id="Vector_5" d="M397.772 175.059H380.428C380.249 175.059 380.077 174.989 379.95 174.863C379.823 174.738 379.752 174.568 379.752 174.39V137.707C379.752 137.53 379.823 137.36 379.95 137.234C380.077 137.109 380.249 137.038 380.428 137.038C380.607 137.038 380.779 137.109 380.906 137.234C381.033 137.36 381.104 137.53 381.104 137.707V173.722H397.299L410.898 136.809C410.959 136.643 411.085 136.507 411.248 136.432C411.41 136.357 411.596 136.349 411.765 136.41C411.933 136.471 412.07 136.595 412.146 136.756C412.222 136.917 412.23 137.1 412.169 137.267L398.408 174.619C398.36 174.748 398.274 174.859 398.16 174.938C398.046 175.017 397.911 175.059 397.772 175.059V175.059Z" fill="white"/>
<path id="Vector_6" d="M425.395 176.823C433.238 176.823 439.595 174.727 439.595 172.142C439.595 169.557 433.238 167.462 425.395 167.462C417.553 167.462 411.195 169.557 411.195 172.142C411.195 174.727 417.553 176.823 425.395 176.823Z" fill="#3F3D56"/>
<path id="Vector_7" d="M418.295 168.131C418.15 168.131 418.01 168.085 417.893 168C417.777 167.915 417.691 167.795 417.649 167.658C417.574 167.418 410.391 143.597 427.409 136.423C427.491 136.388 427.579 136.37 427.668 136.369C427.757 136.368 427.845 136.384 427.928 136.417C428.01 136.449 428.086 136.498 428.149 136.559C428.213 136.621 428.264 136.694 428.298 136.775C428.333 136.856 428.352 136.943 428.353 137.031C428.353 137.119 428.337 137.206 428.303 137.288C428.27 137.37 428.221 137.444 428.158 137.507C428.096 137.569 428.021 137.619 427.939 137.653C412.029 144.36 418.871 167.037 418.942 167.265C418.994 167.435 418.977 167.618 418.893 167.775C418.809 167.931 418.665 168.049 418.494 168.101C418.43 168.12 418.363 168.13 418.295 168.131V168.131Z" fill="white"/>
<path id="Vector_8" d="M442.383 162.019C442.288 161.884 442.218 161.742 442.136 161.604C441.397 161.631 440.658 161.657 439.919 161.684L442.383 162.019Z" fill="#3F3D56"/>
<path id="Vector_9" d="M374.68 172.255C374.537 172.255 374.397 172.21 374.281 172.126C374.166 172.043 374.08 171.925 374.036 171.79L363.217 138.244C363.19 138.161 363.179 138.072 363.187 137.985C363.194 137.897 363.218 137.811 363.259 137.733C363.3 137.655 363.356 137.585 363.424 137.529C363.492 137.472 363.57 137.429 363.655 137.402C363.74 137.375 363.829 137.365 363.918 137.373C364.006 137.38 364.093 137.405 364.172 137.445C364.251 137.486 364.321 137.542 364.378 137.609C364.435 137.676 364.479 137.754 364.505 137.838L375.325 171.383C375.357 171.484 375.365 171.59 375.347 171.694C375.33 171.798 375.289 171.896 375.226 171.981C375.163 172.066 375.081 172.135 374.986 172.183C374.891 172.23 374.787 172.255 374.68 172.255V172.255Z" fill="white"/>
<path id="Vector_10" d="M388.881 181.503C396.723 181.503 403.081 179.408 403.081 176.823C403.081 174.238 396.723 172.142 388.881 172.142C381.038 172.142 374.68 174.238 374.68 176.823C374.68 179.408 381.038 181.503 388.881 181.503Z" fill="#3F3D56"/>
<path id="Vector_11" d="M365.89 180.835C373.732 180.835 380.09 178.739 380.09 176.154C380.09 173.569 373.732 171.474 365.89 171.474C358.047 171.474 351.69 173.569 351.69 176.154C351.69 178.739 358.047 180.835 365.89 180.835Z" fill="#3F3D56"/>
<path id="Vector_12" d="M378.172 115.477C370.499 115.546 362.895 114.046 355.838 111.07C341.102 104.745 334.348 94.0709 334.068 93.6197C333.975 93.4687 333.947 93.2878 333.989 93.1163C334.031 92.9449 334.14 92.7969 334.292 92.7045C334.444 92.6121 334.627 92.5828 334.801 92.6231C334.974 92.6633 335.125 92.7698 335.22 92.9194C340.558 100.416 347.91 106.288 356.444 109.872C369.714 115.545 392.374 118.388 424.969 99.7126C425.045 99.6682 425.13 99.6393 425.219 99.6274C425.307 99.6156 425.396 99.6211 425.483 99.6435C425.569 99.666 425.649 99.7051 425.72 99.7585C425.791 99.8119 425.85 99.8786 425.895 99.9547C425.939 100.031 425.968 100.115 425.98 100.202C425.992 100.289 425.986 100.378 425.963 100.463C425.94 100.548 425.9 100.628 425.846 100.698C425.792 100.767 425.724 100.826 425.647 100.87C406.513 111.832 390.716 115.477 378.172 115.477Z" fill="white"/>
</g>
<g id="tail">
<path id="Vector_13" d="M516.07 140.824C510.534 132.073 496.987 129.642 488.694 135.91C484.951 138.739 482.429 142.828 479.232 146.248C473.853 151.966 466.68 155.72 458.874 156.902C453.44 157.708 447.692 157.27 442.674 159.483C437.808 161.628 434.136 167.753 436.785 172.185C455.464 171.504 474.143 170.823 492.822 170.143C498.196 169.947 503.761 169.704 508.566 167.318C517.894 162.684 521.607 149.574 516.07 140.824Z" fill="#3F3D56"/>
</g>
<g id="Face">
<path id="Vector_14" d="M418.383 23.7464L416.85 4.88404C416.705 4.48135 416.46 4.12108 416.138 3.83617C415.816 3.55126 415.426 3.35082 415.006 3.25321C414.585 3.1556 414.146 3.16393 413.729 3.27743C413.312 3.39093 412.931 3.60598 412.62 3.90291L393.938 21.2093C388.036 19.9724 381.969 19.7024 375.979 20.41L375.507 1.81639C375.381 1.4037 375.151 1.02932 374.839 0.728161C374.527 0.426998 374.143 0.208821 373.722 0.0939384C373.302 -0.0209446 372.859 -0.0287893 372.435 0.0711194C372.011 0.171028 371.619 0.37545 371.296 0.665355L356.223 17.1828C345.776 22.7227 337.399 31.4265 332.319 42.0178C327.24 52.6092 325.726 64.5311 327.999 76.0355C330.272 87.54 336.212 98.0217 344.949 105.944C353.686 113.866 364.76 118.812 376.548 120.057C388.335 121.302 400.215 118.779 410.447 112.86C420.679 106.941 428.724 97.9357 433.402 87.1652C438.081 76.3948 439.147 64.4256 436.444 53.0124C433.741 41.5993 427.411 31.3427 418.383 23.7464H418.383Z" fill="#3F3D56"/>
<path id="Vector_15" d="M381.104 81.5407C379.849 81.5393 378.646 81.0457 377.759 80.1682C376.871 79.2907 376.372 78.1011 376.371 76.8601C376.371 76.6828 376.442 76.5127 376.569 76.3873C376.696 76.2619 376.868 76.1915 377.047 76.1915C377.226 76.1915 377.398 76.2619 377.525 76.3873C377.652 76.5127 377.723 76.6828 377.723 76.8601C377.723 77.7468 378.079 78.5972 378.714 79.2242C379.348 79.8511 380.208 80.2034 381.104 80.2034C382.001 80.2034 382.861 79.8511 383.495 79.2242C384.129 78.5972 384.485 77.7468 384.485 76.8601C384.485 76.6828 384.557 76.5127 384.683 76.3873C384.81 76.2619 384.982 76.1915 385.161 76.1915C385.341 76.1915 385.513 76.2619 385.64 76.3873C385.766 76.5127 385.838 76.6828 385.838 76.8601C385.836 78.1011 385.337 79.2907 384.45 80.1682C383.562 81.0457 382.359 81.5393 381.104 81.5407Z" fill="white"/>
<path id="Vector_16" d="M381.442 70.5595C384.43 70.5595 386.852 69.6383 386.852 68.5021C386.852 67.3658 384.43 66.4447 381.442 66.4447C378.455 66.4447 376.033 67.3658 376.033 68.5021C376.033 69.6383 378.455 70.5595 381.442 70.5595Z" fill="white"/>
<path id="Vector_17" d="M345.068 68.6529C346.616 66.8204 348.552 65.3463 350.74 64.3348C352.927 63.3233 355.312 62.7991 357.727 62.7991C360.142 62.7991 362.527 63.3233 364.714 64.3348C366.901 65.3463 368.837 66.8204 370.385 68.6529C373.008 66.1773 374.829 62.9882 375.619 59.489C376.409 55.9898 376.131 52.3377 374.822 48.9944C373.512 45.6511 371.23 42.7668 368.263 40.7063C365.295 38.6459 361.777 37.5017 358.152 37.4185C354.527 37.3353 350.959 38.3169 347.898 40.239C344.838 42.1612 342.422 44.9376 340.958 48.2173C339.493 51.4969 339.044 55.1324 339.669 58.664C340.293 62.1957 341.963 65.4649 344.467 68.0582C344.663 68.261 344.863 68.4592 345.068 68.6529Z" fill="white"/>
<path id="Vector_18" d="M394.565 68.6529C396.113 66.8204 398.049 65.3463 400.236 64.3348C402.424 63.3233 404.809 62.7991 407.224 62.7991C409.638 62.7991 412.023 63.3233 414.211 64.3348C416.398 65.3463 418.334 66.8204 419.882 68.6529C422.505 66.1773 424.326 62.9882 425.116 59.489C425.905 55.9898 425.628 52.3377 424.318 48.9944C423.009 45.6511 420.726 42.7669 417.759 40.7064C414.792 38.6459 411.274 37.5017 407.649 37.4185C404.024 37.3353 400.456 38.3169 397.395 40.239C394.335 42.1612 391.919 44.9376 390.454 48.2173C388.989 51.4969 388.541 55.1324 389.166 58.664C389.79 62.1957 391.46 65.4649 393.964 68.0582C394.159 68.261 394.36 68.4592 394.565 68.6529Z" fill="white"/>
<path id="Vector_19" d="M407.814 81.8487C410.866 81.8487 413.34 79.4023 413.34 76.3846C413.34 73.3668 410.866 70.9204 407.814 70.9204C404.762 70.9204 402.288 73.3668 402.288 76.3846C402.288 79.4023 404.762 81.8487 407.814 81.8487Z" fill="#FF6584"/>
<path id="Vector_20" d="M357.877 81.8487C360.929 81.8487 363.403 79.4023 363.403 76.3846C363.403 73.3668 360.929 70.9204 357.877 70.9204C354.826 70.9204 352.352 73.3668 352.352 76.3846C352.352 79.4023 354.826 81.8487 357.877 81.8487Z" fill="#FF6584"/>
</g>
<g id="eyes">
<path id="Vector_21" d="M349.69 63.5398C353.172 63.5398 355.996 60.748 355.996 57.3042C355.996 53.8604 353.172 51.0686 349.69 51.0686C346.207 51.0686 343.384 53.8604 343.384 57.3042C343.384 60.748 346.207 63.5398 349.69 63.5398Z" fill="#3F3D56"/>
<path id="Vector_22" d="M399.185 63.5398C402.667 63.5398 405.491 60.748 405.491 57.3042C405.491 53.8604 402.667 51.0686 399.185 51.0686C395.702 51.0686 392.879 53.8604 392.879 57.3042C392.879 60.748 395.702 63.5398 399.185 63.5398Z" fill="#3F3D56"/>
</g>
</g>
<defs>
<linearGradient id="paint0_linear" x1="129.039" y1="16.2429" x2="129.039" y2="140.046" gradientUnits="userSpaceOnUse">
<stop offset="0.333333" stop-color="#59C857"/>
<stop offset="1" stop-color="#453AF9" stop-opacity="0.87"/>
</linearGradient>
<linearGradient id="paint1_linear" x1="168.3" y1="140.058" x2="168.3" y2="191.958" gradientUnits="userSpaceOnUse">
<stop offset="0.333333" stop-color="#59C857"/>
<stop offset="1" stop-color="#453AF9" stop-opacity="0.87"/>
</linearGradient>
<linearGradient id="paint2_linear" x1="250.516" y1="137.044" x2="250.516" y2="190.477" gradientUnits="userSpaceOnUse">
<stop offset="0.333333" stop-color="#59C857"/>
<stop offset="1" stop-color="#453AF9" stop-opacity="0.87"/>
</linearGradient>
<linearGradient id="paint3_linear" x1="267.461" y1="190.483" x2="267.461" y2="212.883" gradientUnits="userSpaceOnUse">
<stop offset="0.333333" stop-color="#59C857"/>
<stop offset="1" stop-color="#453AF9" stop-opacity="0.87"/>
</linearGradient>
<linearGradient id="paint4_linear" x1="609.123" y1="144.098" x2="609.123" y2="197.537" gradientUnits="userSpaceOnUse">
<stop offset="0.333333" stop-color="#59C857"/>
<stop offset="1" stop-color="#453AF9" stop-opacity="0.87"/>
</linearGradient>
<linearGradient id="paint5_linear" x1="517.252" y1="190.49" x2="517.252" y2="212.896" gradientUnits="userSpaceOnUse">
<stop offset="0.333333" stop-color="#59C857"/>
<stop offset="1" stop-color="#453AF9" stop-opacity="0.87"/>
</linearGradient>
<clipPath id="clip0">
<rect width="700" height="230" fill="white"/>
</clipPath>
</defs>
</svg>
