<svg width="512" height="512" viewBox="0 0 512 512" fill="none" xmlns="http://www.w3.org/2000/svg">
<g id="disco 1">
<g id="filled outline">
<g id="discocolorpink">
<path id="Vector" d="M251.331 128.334L256 126C226.691 125.984 197.843 133.294 172.079 147.265C146.314 161.237 124.451 181.427 108.476 206H169.4C188.41 172.564 216.927 145.531 251.331 128.334V128.334Z" fill="#FF2B63"/>
<path id="Vector_2" d="M260.669 475.666L256 478C285.309 478.016 314.157 470.706 339.921 456.735C365.686 442.763 387.549 422.573 403.524 398H342.6C323.591 431.437 295.073 458.47 260.669 475.666V475.666Z" fill="#FF2B63"/>
<path id="Vector_3" d="M296 302C296 312.698 295.578 323.365 294.735 334H365.343C368.886 312.814 368.886 291.186 365.343 270H294.735C295.574 280.628 295.996 291.295 296 302Z" fill="#FF2B63"/>
<path id="Vector_4" d="M227.509 206H169.4C158.116 225.83 150.419 247.496 146.661 270H217.269C218.973 248.428 222.397 227.027 227.509 206V206Z" fill="#FF2B63"/>
</g>
<g id="discocoloryellow">
<path id="Vector_5" d="M146.657 334H82.911C87.1047 356.817 95.795 378.573 108.476 398H169.4C158.115 378.17 150.416 356.505 146.657 334V334Z" fill="#FFCD01"/>
<path id="Vector_6" d="M284.491 398H342.6C353.884 378.17 361.581 356.504 365.339 334H294.735C293.03 355.572 289.604 376.973 284.491 398V398Z" fill="#FF9F03"/>
<path id="Vector_7" d="M169.4 206H227.513C233.534 181.235 241.873 157.091 252.419 133.888L256 126L251.331 128.334C216.927 145.531 188.41 172.564 169.4 206V206Z" fill="#FFCD01"/>
<path id="Vector_8" d="M294.735 270C293.03 248.428 289.604 227.027 284.491 206H227.509C222.396 227.027 218.97 248.428 217.265 270H294.735Z" fill="#FFCD01"/>
</g>
<g id="discocolorskyblue">
<path id="Vector_9" d="M429.089 270H365.343C368.886 291.186 368.886 312.814 365.343 334H429.089C432.97 312.843 432.97 291.157 429.089 270V270Z" fill="#48BDFF"/>
<path id="Vector_10" d="M284.491 206H342.6C323.589 172.563 295.07 145.53 260.665 128.334L256 126L259.585 133.888C270.131 157.091 278.47 181.235 284.491 206V206Z" fill="#48BDFF"/>
<path id="Vector_11" d="M284.491 398H227.509C233.53 422.765 241.869 446.909 252.415 470.112L256 478L259.585 470.112C270.131 446.909 278.47 422.765 284.491 398V398Z" fill="#48BDFF"/>
</g>
<g id="discocolorpurple">
<path id="Vector_12" d="M144 302C144.001 291.278 144.89 280.575 146.657 270H82.911C79.0297 291.157 79.0297 312.843 82.911 334H146.657C144.89 323.425 144.001 312.722 144 302V302Z" fill="#8726E2"/>
<path id="Vector_13" d="M342.6 398H284.491C278.47 422.765 270.131 446.909 259.585 470.112L256 478L260.669 475.666C295.073 458.47 323.591 431.437 342.6 398V398Z" fill="#8726E2"/>
<path id="Vector_14" d="M227.509 206H284.491C278.47 181.235 270.131 157.091 259.585 133.888L256 126L252.415 133.888C241.869 157.091 233.53 181.235 227.509 206V206Z" fill="#8726E2"/>
<path id="Vector_15" d="M217.265 334C218.97 355.572 222.396 376.973 227.509 398H284.491C289.604 376.973 293.03 355.572 294.735 334H217.265Z" fill="#8726E2"/>
</g>
<g id="hanger">
<path id="Vector_16" d="M304 46H208C202.667 35.3333 197.333 24.6667 192 14H320L304 46Z" fill="#703F16"/>
</g>
<g id="discocolorgreeny">
<path id="Vector_17" d="M342.6 206H403.52C387.546 181.428 365.683 161.238 339.919 147.266C314.156 133.295 285.308 125.984 256 126L260.669 128.334C295.073 145.531 323.59 172.564 342.6 206V206Z" fill="#3BDABE"/>
<path id="Vector_18" d="M169.4 206H108.48C95.799 225.427 87.1087 247.183 82.915 270H146.661C150.419 247.496 158.116 225.83 169.4 206Z" fill="#3BDABE"/>
<path id="Vector_19" d="M227.509 398H169.4C188.41 431.437 216.929 458.47 251.335 475.666L256 478L252.415 470.112C241.869 446.909 233.53 422.765 227.509 398V398Z" fill="#3BDABE"/>
<path id="Vector_20" d="M216 302C216 312.698 216.422 323.365 217.265 334H294.735C295.574 323.372 295.996 312.705 296 302C296.004 291.295 295.582 280.628 294.735 270H217.265C216.426 280.628 216.005 291.295 216 302Z" fill="#3BDABE"/>
<path id="Vector_21" d="M224 318C221.413 318 218.85 317.905 216.309 317.716C216.52 323.154 216.839 328.582 217.265 334H294.735C295.574 323.372 295.996 312.705 296 302C296 297.748 295.914 293.5 295.78 289.257C276.456 307.738 250.738 318.036 224 318V318Z" fill="#38C1A7"/>
</g>
<g id="others">
<path id="Vector_22" d="M146.657 334C150.416 356.505 158.115 378.17 169.4 398H227.513C222.4 376.973 218.974 355.572 217.269 334H146.657Z" fill="#E6E6E6"/>
<path id="Vector_23" d="M169.4 398H108.48C124.454 422.572 146.317 442.762 172.081 456.734C197.844 470.705 226.692 478.016 256 478L251.331 475.666C216.927 458.47 188.409 431.437 169.4 398V398Z" fill="#FF9F03"/>
<path id="Vector_24" d="M365.343 270H429.089C424.895 247.183 416.205 225.427 403.524 206H342.6C353.885 225.83 361.584 247.495 365.343 270V270Z" fill="#FF9F03"/>
<path id="Vector_25" d="M216 302C216 291.302 216.422 280.635 217.265 270H146.657C143.114 291.186 143.114 312.814 146.657 334H217.265C216.426 323.372 216.005 312.705 216 302Z" fill="#FF9F03"/>
<path id="Vector_26" d="M294.123 263.134C294.343 265.42 294.554 267.708 294.735 270H365.343C362.72 254.299 358.173 238.98 351.806 224.39C336.378 242.218 316.462 255.595 294.123 263.134V263.134Z" fill="#D3D3D3"/>
<path id="Vector_27" d="M352.5 382C351.916 382 351.334 381.988 350.752 381.978C348.28 387.445 345.564 392.785 342.604 398H403.524C413.681 382.431 421.295 365.344 426.079 347.381C417.127 358.221 405.888 366.947 393.167 372.932C380.446 378.917 366.559 382.014 352.5 382V382Z" fill="#D3D3D3"/>
<path id="Vector_28" d="M272 94H240V158H272V94Z" fill="#E6E6E6"/>
<path id="Vector_29" d="M342.6 398H403.52C416.201 378.573 424.891 356.817 429.085 334H365.343C361.584 356.505 353.885 378.17 342.6 398V398Z" fill="#E6E6E6"/>
<path id="Vector_30" d="M284.491 206C289.604 227.027 293.03 248.428 294.735 270H365.343C361.584 247.495 353.885 225.83 342.6 206H284.491Z" fill="#E6E6E6"/>
</g>
<g id="star3">
<path id="Vector_31" d="M360 422C370.609 422 380.783 426.214 388.284 433.716C395.786 441.217 400 451.391 400 462C400 451.391 404.214 441.217 411.716 433.716C419.217 426.214 429.391 422 440 422C429.391 422 419.217 417.786 411.716 410.284C404.214 402.783 400 392.609 400 382C400 392.609 395.786 402.783 388.284 410.284C380.783 417.786 370.609 422 360 422Z" fill="#FFCD01"/>
</g>
<g id="star2">
<path id="Vector_32" d="M408 86C418.609 86 428.783 90.2143 436.284 97.7157C443.786 105.217 448 115.391 448 126V126C448 115.391 452.214 105.217 459.716 97.7157C467.217 90.2143 477.391 86 488 86V86C477.391 86 467.217 81.7857 459.716 74.2843C452.214 66.7828 448 56.6087 448 46V46C448 51.2529 446.965 56.4543 444.955 61.3073C442.945 66.1604 439.999 70.5699 436.284 74.2843C432.57 77.9986 428.16 80.945 423.307 82.9552C418.454 84.9654 413.253 86 408 86V86Z" fill="#FFCD01"/>
<path id="star2_2" d="M488 78C479.516 77.9905 471.382 74.616 465.383 68.6169C459.384 62.6178 456.01 54.484 456 46C456 43.8783 455.157 41.8434 453.657 40.3431C452.157 38.8429 450.122 38 448 38C445.878 38 443.843 38.8429 442.343 40.3431C440.843 41.8434 440 43.8783 440 46C439.99 54.484 436.616 62.6178 430.617 68.6169C424.618 74.616 416.484 77.9905 408 78C405.878 78 403.843 78.8429 402.343 80.3431C400.843 81.8434 400 83.8783 400 86C400 88.1217 400.843 90.1566 402.343 91.6569C403.843 93.1571 405.878 94 408 94C416.484 94.0095 424.618 97.384 430.617 103.383C436.616 109.382 439.99 117.516 440 126C440 128.122 440.843 130.157 442.343 131.657C443.843 133.157 445.878 134 448 134C450.122 134 452.157 133.157 453.657 131.657C455.157 130.157 456 128.122 456 126C456.01 117.516 459.384 109.382 465.383 103.383C471.382 97.384 479.516 94.0095 488 94C490.122 94 492.157 93.1571 493.657 91.6569C495.157 90.1566 496 88.1217 496 86C496 83.8783 495.157 81.8434 493.657 80.3431C492.157 78.8429 490.122 78 488 78ZM448 99.493C444.443 94.1442 439.856 89.5573 434.507 86C439.856 82.4427 444.443 77.8558 448 72.507C451.557 77.8558 456.144 82.4427 461.493 86C456.144 89.5573 451.557 94.1442 448 99.493Z" fill="black"/>
</g>
<g id="star1">
<path id="Vector_33" d="M24 150C34.6087 150 44.7828 154.214 52.2843 161.716C59.7857 169.217 64 179.391 64 190C64 179.391 68.2143 169.217 75.7157 161.716C83.2172 154.214 93.3913 150 104 150V150C93.3913 150 83.2172 145.786 75.7157 138.284C68.2143 130.783 64 120.609 64 110C64 120.609 59.7857 130.783 52.2843 138.284C44.7828 145.786 34.6087 150 24 150V150Z" fill="#FFCD01"/>
<path id="star1_2" d="M64 102C61.8783 102 59.8434 102.843 58.3431 104.343C56.8429 105.843 56 107.878 56 110C55.9905 118.484 52.616 126.618 46.6169 132.617C40.6178 138.616 32.484 141.99 24 142C21.8783 142 19.8434 142.843 18.3431 144.343C16.8429 145.843 16 147.878 16 150C16 152.122 16.8429 154.157 18.3431 155.657C19.8434 157.157 21.8783 158 24 158C32.484 158.01 40.6178 161.384 46.6169 167.383C52.616 173.382 55.9905 181.516 56 190C56 192.122 56.8429 194.157 58.3431 195.657C59.8434 197.157 61.8783 198 64 198C66.1217 198 68.1566 197.157 69.6569 195.657C71.1571 194.157 72 192.122 72 190C72.0095 181.516 75.384 173.382 81.3831 167.383C87.3822 161.384 95.516 158.01 104 158C106.122 158 108.157 157.157 109.657 155.657C111.157 154.157 112 152.122 112 150C112 147.878 111.157 145.843 109.657 144.343C108.157 142.843 106.122 142 104 142C95.516 141.99 87.3822 138.616 81.3831 132.617C75.384 126.618 72.0095 118.484 72 110C72 107.878 71.1571 105.843 69.6569 104.343C68.1566 102.843 66.1217 102 64 102V102ZM64 163.493C60.4427 158.144 55.8558 153.557 50.507 150C55.8558 146.443 60.4427 141.856 64 136.507C67.5573 141.856 72.1442 146.443 77.493 150C72.1442 153.557 67.5573 158.144 64 163.493Z" fill="black"/>
</g>
<g id="outline">
<path id="outline_2" d="M407.7 206C393.1 184.707 374.187 166.721 352.187 153.209C330.188 139.696 305.594 130.959 280 127.565V102C280 99.8783 279.157 97.8434 277.657 96.3431C276.157 94.8429 274.122 94 272 94H264V62H304C305.486 61.9999 306.942 61.5862 308.206 60.8052C309.469 60.0242 310.491 58.9067 311.155 57.578L327.155 25.578C327.765 24.3583 328.053 23.003 327.992 21.6407C327.93 20.2784 327.522 18.9544 326.805 17.7944C326.088 16.6344 325.087 15.6769 323.896 15.0128C322.705 14.3487 321.364 14 320 14H192C190.636 14 189.295 14.3487 188.104 15.0128C186.913 15.6769 185.912 16.6344 185.195 17.7944C184.478 18.9544 184.07 20.2784 184.008 21.6407C183.947 23.003 184.235 24.3583 184.845 25.578L200.845 57.578C201.509 58.9067 202.531 60.0242 203.794 60.8052C205.058 61.5862 206.514 61.9999 208 62H248V94H240C237.878 94 235.843 94.8429 234.343 96.3431C232.843 97.8434 232 99.8783 232 102V127.565C206.406 130.959 181.812 139.696 159.813 153.209C137.813 166.721 118.9 184.707 104.3 206H104V206.427C83.1528 236.944 72 273.042 72 310C72 346.958 83.1528 383.056 104 413.573V414H104.3C119.196 435.755 138.596 454.053 161.185 467.651C183.774 481.25 209.023 489.833 235.22 492.816C261.416 495.8 287.949 493.116 313.017 484.945C338.085 476.774 361.103 463.308 380.51 445.46C384.107 448.458 387 452.211 388.986 456.451C390.971 460.692 392 465.317 392 470C392 472.122 392.843 474.157 394.343 475.657C395.843 477.157 397.878 478 400 478C402.122 478 404.157 477.157 405.657 475.657C407.157 474.157 408 472.122 408 470C408.01 461.516 411.384 453.382 417.383 447.383C423.382 441.384 431.516 438.01 440 438C442.122 438 444.157 437.157 445.657 435.657C447.157 434.157 448 432.122 448 430C448 427.878 447.157 425.843 445.657 424.343C444.157 422.843 442.122 422 440 422C434.498 421.997 429.09 420.577 424.297 417.875C419.504 415.174 415.488 411.282 412.637 406.577C431.287 376.335 440.774 341.336 439.951 305.815C439.128 270.295 428.03 235.773 408 206.427V206H407.7ZM204.944 30H307.056L299.056 46H212.944L204.944 30ZM387.844 206H347.192C346.734 205.237 346.276 204.474 345.807 203.716C331.797 181.055 313.442 161.39 291.8 145.853C329.807 154.194 363.749 175.449 387.847 206H387.844ZM424 310C424 318.03 423.428 326.051 422.289 334H374.569C376.477 318.057 376.477 301.943 374.569 286H422.278C423.423 293.949 423.998 301.969 424 310ZM400 382C397.878 382 395.843 382.843 394.343 384.343C392.843 385.843 392 387.878 392 390C392.002 392.699 391.661 395.387 390.987 398H355.843C363.222 382.742 368.65 366.615 372 350H419.178C416.217 362.143 411.9 373.914 406.309 385.093C405.563 384.13 404.607 383.351 403.513 382.814C402.42 382.278 401.218 382 400 382ZM88 310C88.0017 301.969 88.5772 293.949 89.722 286H137.431C135.523 301.943 135.523 318.057 137.431 334H89.722C88.5772 326.051 88.0017 318.031 88 310ZM360 310C359.993 318.026 359.468 326.042 358.427 334H303.31C303.765 326.036 303.995 318.036 304 310C304.005 301.964 303.775 293.964 303.31 286H358.427C359.468 293.958 359.993 301.974 360 310ZM256 466.419C248.71 449.391 242.617 431.876 237.764 414H274.236C269.383 431.876 263.29 449.391 256 466.419ZM233.788 398C230.203 382.176 227.598 366.145 225.988 350H286.02C284.41 366.145 281.805 382.176 278.22 398H233.788ZM224.715 334C224.243 326.038 224.005 318.038 224 310C223.995 301.962 224.234 293.962 224.715 286H287.285C287.757 293.962 287.995 301.962 288 310C288.005 318.038 287.766 326.038 287.285 334H224.715ZM152 310C152.007 301.974 152.532 293.958 153.573 286H208.69C208.235 293.964 208.005 301.964 208 310C207.995 318.036 208.225 326.036 208.69 334H153.573C152.532 326.042 152.007 318.026 152 310ZM256 153.581C263.29 170.609 269.383 188.124 274.236 206H237.764C242.617 188.124 248.71 170.609 256 153.581ZM278.212 222C281.797 237.824 284.402 253.855 286.012 270H225.984C227.594 253.855 230.199 237.824 233.784 222H278.212ZM302.09 270C300.547 253.866 298.049 237.838 294.609 222H337.865C345.973 237.104 351.953 253.257 355.635 270H302.09ZM290.79 206C286.034 187.73 280.033 169.808 272.829 152.358C294.84 166.172 313.711 184.446 328.227 206H290.79ZM221.204 206H183.773C198.289 184.445 217.162 166.172 239.173 152.358C231.967 169.808 225.964 187.73 221.207 206H221.204ZM217.388 222C213.949 237.838 211.45 253.866 209.907 270H156.365C160.048 253.257 166.028 237.104 174.135 222H217.388ZM140 270H92.825C96.9842 253.047 103.775 236.85 112.951 222H156.157C148.778 237.258 143.35 253.385 140 270ZM140 350C143.35 366.615 148.778 382.742 156.157 398H112.951C103.775 383.15 96.9842 366.953 92.825 350H140ZM156.365 350H209.91C211.453 366.134 213.952 382.162 217.391 398H174.135C166.028 382.896 160.048 366.743 156.365 350ZM221.207 414C225.963 432.27 231.964 450.192 239.168 467.642C217.159 453.827 198.288 435.554 183.773 414H221.207ZM290.793 414H328.227C313.712 435.554 294.842 453.827 272.832 467.642C280.036 450.192 286.037 432.27 290.793 414ZM294.609 398C298.049 382.162 300.547 366.134 302.09 350H355.635C351.953 366.743 345.973 382.896 337.865 398H294.609ZM372 270C368.65 253.385 363.222 237.258 355.843 222H399.049C408.225 236.85 415.016 253.047 419.176 270H372ZM248 110H264V126.185C261.35 126.071 258.688 126 256.011 126H255.989C253.312 126 250.65 126.071 248 126.185V110ZM220.2 145.853C198.56 161.391 180.208 181.056 166.2 203.716C165.731 204.474 165.273 205.237 164.815 206H124.153C148.251 175.449 182.193 154.193 220.2 145.853ZM124.153 414H164.808C165.266 414.763 165.724 415.526 166.193 416.284C180.203 438.945 198.558 458.61 220.2 474.147C182.193 465.807 148.251 444.551 124.153 414ZM291.726 474.2C313.4 458.654 331.78 438.97 345.807 416.283C346.276 415.525 346.734 414.762 347.192 413.999H381.132C375.302 419.158 367.785 422.004 360 422C357.878 422 355.843 422.843 354.343 424.343C352.843 425.843 352 427.878 352 430C352 432.122 352.843 434.157 354.343 435.657C355.843 437.157 357.878 438 360 438C361.488 438.002 362.974 438.108 364.447 438.316C343.534 456.087 318.553 468.414 291.726 474.2ZM400 443.493C396.443 438.144 391.856 433.557 386.507 430C391.856 426.443 396.443 421.856 400 416.507C403.557 421.856 408.144 426.443 413.493 430C408.144 433.557 403.557 438.144 400 443.493Z" fill="black"/>
</g>
</g>
</g>
</svg>
